<?xml version="1.0" encoding="UTF-8"?>
<svg version="1.1" xmlns="http://www.w3.org/2000/svg" width="150" height="150">
<path d="M0 0 C49.5 0 99 0 150 0 C150 49.5 150 99 150 150 C100.5 150 51 150 0 150 C0 100.5 0 51 0 0 Z " fill="#FCFCFC" transform="translate(0,0)"/>
<path d="M0 0 C7.26 0 14.52 0 22 0 C22 12.54 22 25.08 22 38 C34.54 38 47.08 38 60 38 C60 43.94 60 49.88 60 56 C40.2 56 20.4 56 0 56 C0 37.52 0 19.04 0 0 Z " fill="#599E45" transform="translate(10,84)"/>
<path d="M0 0 C19.8 0 39.6 0 60 0 C60 5.94 60 11.88 60 18 C47.46 18 34.92 18 22 18 C22 30.54 22 43.08 22 56 C14.74 56 7.48 56 0 56 C0 37.52 0 19.04 0 0 Z " fill="#D32260" transform="translate(10,15)"/>
<path d="M0 0 C3.609375 -0.020625 7.21875 -0.04125 10.9375 -0.0625 C12.07695068 -0.071604 13.21640137 -0.08070801 14.39038086 -0.09008789 C15.28120361 -0.09258545 16.17202637 -0.09508301 17.08984375 -0.09765625 C18.46450806 -0.10551147 18.46450806 -0.10551147 19.86694336 -0.11352539 C22 0 22 0 23 1 C23.09813987 2.43740353 23.1279828 3.87956327 23.12939453 5.3203125 C23.13254669 6.23796387 23.13569885 7.15561523 23.13894653 8.10107422 C23.1369223 9.09896973 23.13489807 10.09686523 23.1328125 11.125 C23.13376923 12.14223145 23.13472595 13.15946289 23.13571167 14.20751953 C23.13639361 16.36295636 23.13453835 18.51839522 23.13037109 20.67382812 C23.12502305 23.98572371 23.13031563 27.29748367 23.13671875 30.609375 C23.13605797 32.69791697 23.13477681 34.78645885 23.1328125 36.875 C23.13483673 37.87289551 23.13686096 38.87079102 23.13894653 39.89892578 C23.13421829 41.27540283 23.13421829 41.27540283 23.12939453 42.6796875 C23.12859894 43.49163574 23.12780334 44.30358398 23.12698364 45.14013672 C23 47 23 47 22 48 C20.16427369 48.09905152 18.32472425 48.12799207 16.48632812 48.12939453 C15.30840698 48.13254669 14.13048584 48.13569885 12.91687012 48.13894653 C11.63461548 48.1369223 10.35236084 48.13489807 9.03125 48.1328125 C7.72546997 48.13376923 6.41968994 48.13472595 5.07434082 48.13571167 C2.30687278 48.13718833 -0.46056304 48.13503511 -3.22802734 48.13037109 C-6.78262649 48.12467381 -10.33715014 48.12795298 -13.89174652 48.13394356 C-17.27158714 48.13841747 -20.65140723 48.13528886 -24.03125 48.1328125 C-25.31350464 48.13483673 -26.59575928 48.13686096 -27.91687012 48.13894653 C-29.68375183 48.13421829 -29.68375183 48.13421829 -31.48632812 48.12939453 C-32.52921997 48.12859894 -33.57211182 48.12780334 -34.64660645 48.12698364 C-37 48 -37 48 -38 47 C-38.0983721 45.66956375 -38.13078592 44.33406656 -38.1328125 43 C-38.13410156 42.195625 -38.13539062 41.39125 -38.13671875 40.5625 C-38.13285156 39.716875 -38.12898438 38.87125 -38.125 38 C-38.12886719 37.154375 -38.13273437 36.30875 -38.13671875 35.4375 C-38.13542969 34.633125 -38.13414063 33.82875 -38.1328125 33 C-38.13168457 32.2575 -38.13055664 31.515 -38.12939453 30.75 C-38 29 -38 29 -37 28 C-34.26105915 27.91141354 -31.5474673 27.88476521 -28.80859375 27.90234375 C-27.57883568 27.90446617 -27.57883568 27.90446617 -26.32423401 27.90663147 C-23.69528618 27.91224711 -21.06642227 27.92480221 -18.4375 27.9375 C-16.65950643 27.94251299 -14.88151154 27.94707624 -13.10351562 27.95117188 C-8.73561842 27.96137248 -4.3679036 27.98094468 0 28 C0 18.76 0 9.52 0 0 Z " fill="#4AA7DC" transform="translate(120,93)"/>
<path d="M0 0 C20.13 0 40.26 0 61 0 C61.020625 7.569375 61.04125 15.13875 61.0625 22.9375 C61.071604 25.32991943 61.08070801 27.72233887 61.09008789 30.18725586 C61.09300692 32.07145125 61.09555551 33.95564727 61.09765625 35.83984375 C61.10277222 36.82795044 61.10788818 37.81605713 61.11315918 38.83410645 C61.11334045 40.23481384 61.11334045 40.23481384 61.11352539 41.66381836 C61.115746 42.47878281 61.11796661 43.29374725 61.12025452 44.13340759 C61 46 61 46 60 47 C58.45044441 47.09899523 56.89646327 47.13079524 55.34375 47.1328125 C53.93416016 47.13474609 53.93416016 47.13474609 52.49609375 47.13671875 C51.50738281 47.13285156 50.51867187 47.12898438 49.5 47.125 C48.51128906 47.12886719 47.52257812 47.13273437 46.50390625 47.13671875 C45.56417969 47.13542969 44.62445313 47.13414063 43.65625 47.1328125 C42.78806641 47.13168457 41.91988281 47.13055664 41.02539062 47.12939453 C39 47 39 47 38 46 C37.91232888 43.92737924 37.89304127 41.85179706 37.90234375 39.77734375 C37.90484131 38.64288818 37.90733887 37.50843262 37.90991211 36.33959961 C37.91901611 34.88690674 37.92812012 33.43421387 37.9375 31.9375 C37.9684375 25.0384375 37.9684375 25.0384375 38 18 C25.46 18 12.92 18 0 18 C0 12.06 0 6.12 0 0 Z " fill="#9E83B5" transform="translate(82,15)"/>
<path d="M0 0 C4.95 0 9.9 0 15 0 C15 20.13 15 40.26 15 61 C9.72 61 4.44 61 -1 61 C-1.02255497 53.19424413 -1.04091738 45.38850593 -1.05181217 37.58272648 C-1.05704002 33.9585404 -1.06413587 30.3343777 -1.07543945 26.71020508 C-1.08627184 23.21540025 -1.09227758 19.72061796 -1.09487724 16.22579765 C-1.09763551 14.23760611 -1.10544688 12.24942369 -1.11329651 10.26124573 C-1.11337204 9.06007614 -1.11344757 7.85890656 -1.11352539 6.62133789 C-1.115746 5.55766495 -1.11796661 4.493992 -1.12025452 3.39808655 C-1 1 -1 1 0 0 Z " fill="#FB953D" transform="translate(69,47)"/>
<path d="M0 0 C4.95 0 9.9 0 15 0 C16.74299388 1.74299388 16.12758682 4.14406252 16.12939453 6.51367188 C16.13254669 7.69159302 16.13569885 8.86951416 16.13894653 10.08312988 C16.1369223 11.36538452 16.13489807 12.64763916 16.1328125 13.96875 C16.13424759 15.92742004 16.13424759 15.92742004 16.13571167 17.92565918 C16.13718833 20.69312722 16.13503511 23.46056304 16.13037109 26.22802734 C16.12467381 29.78262649 16.12795298 33.33715014 16.13394356 36.89174652 C16.13841747 40.27158714 16.13528886 43.65140723 16.1328125 47.03125 C16.13483673 48.31350464 16.13686096 49.59575928 16.13894653 50.91687012 C16.13579437 52.09479126 16.13264221 53.2727124 16.12939453 54.48632812 C16.12859894 55.52921997 16.12780334 56.57211182 16.12698364 57.64660645 C16 60 16 60 15 61 C10.05 61 5.1 61 0 61 C0 40.87 0 20.74 0 0 Z " fill="#D42A65" transform="translate(46,47)"/>
<path d="M0 0 C4.95 0 9.9 0 15 0 C15 20.13 15 40.26 15 61 C10.05 61 5.1 61 0 61 C0 40.87 0 20.74 0 0 Z " fill="#9D81B4" transform="translate(91,47)"/>
</svg>
