<svg version="1.1" id="Layer_1" xmlns="http://www.w3.org/2000/svg" xmlns:xlink="http://www.w3.org/1999/xlink" x="0px" y="0px"
	 width="100%" viewBox="0 0 250 250" enable-background="new 0 0 250 250" xml:space="preserve">
<path fill="#FFFFFF" opacity="1.000000" stroke="none" 
	d="
M19.230129,250.670776 
	C13.669622,251.000000 8.336828,250.909714 3.010264,251.052231 
	C1.299937,251.097992 0.622589,250.778946 0.979290,249.006912 
	C1.108185,248.366562 1.000000,247.678482 1.000000,247.012192 
	C1.000000,166.390228 1.039128,85.768181 0.880427,5.146530 
	C0.872772,1.257794 2.025243,0.922118 5.349083,0.926036 
	C85.804359,1.020867 166.259827,1.026675 246.715027,0.910109 
	C250.218689,0.905033 251.112564,1.503182 251.106155,5.210643 
	C250.966797,85.832367 250.968338,166.454453 251.104843,247.076172 
	C251.110901,250.650101 250.211487,251.273056 246.923126,251.087891 
	C241.277527,250.769989 235.601059,251.000000 229.468781,251.000000 
	C228.443695,250.349869 227.984604,249.598724 228.051987,248.749435 
	C229.100449,235.530075 220.441757,229.287796 210.259354,224.406097 
	C202.235870,220.559448 193.385986,219.256927 184.817505,217.179688 
	C177.410980,215.384155 170.760086,212.116486 164.316223,208.201279 
	C158.656342,204.762390 155.413620,199.693405 154.267395,193.361755 
	C153.027435,186.512497 151.823532,179.863480 157.790787,173.845230 
	C161.871078,169.730072 161.826233,163.414749 162.527039,157.801285 
	C162.867203,155.076477 163.232193,152.528519 165.651474,150.769089 
	C167.489807,149.432159 167.667419,147.393661 167.623764,145.365051 
	C167.535126,141.246704 168.461456,137.312943 170.633575,133.906906 
	C173.489044,129.429337 173.003250,124.704155 172.538269,119.888153 
	C172.423340,118.697685 172.162796,117.443169 171.079224,116.839394 
	C166.958008,114.542992 167.533066,110.868591 168.087631,107.175430 
	C169.740494,96.168068 167.796967,85.357399 164.246414,75.202957 
	C159.074219,60.410622 150.721298,55.394600 134.971909,55.371597 
	C123.155365,55.354343 111.315735,54.829575 99.600723,57.153358 
	C95.604332,57.946075 92.249352,59.275993 90.822044,63.501984 
	C90.502090,64.449303 89.890434,65.327660 89.083481,65.912888 
	C78.557655,73.546448 78.766876,84.584435 79.732101,95.760277 
	C80.218727,101.394684 81.286888,106.976440 81.580086,112.639198 
	C81.648109,113.952957 82.016212,115.443680 80.611496,116.259979 
	C79.093719,117.141960 76.895088,117.155922 76.620880,119.501152 
	C76.212708,122.992081 75.762955,126.623207 77.221664,129.868164 
	C79.708534,135.400330 81.793846,140.934753 81.566856,147.129501 
	C81.517303,148.481888 82.080132,149.938950 83.288231,150.586258 
	C86.920464,152.532425 87.374153,155.934830 87.825974,159.464355 
	C88.570251,165.278488 89.676704,170.996078 93.097794,175.968979 
	C93.473457,176.515045 93.787277,177.161713 93.839355,177.813675 
	C94.894547,191.023239 94.210030,201.964523 81.982994,209.313019 
	C74.586845,213.758133 66.624329,216.500504 58.251446,218.247162 
	C50.897594,219.781235 43.534767,221.428284 36.761444,224.724899 
	C26.158348,229.885483 17.795990,236.789658 19.230129,250.670776 
z"/>
<path fill="#C6CACD" opacity="1.000000" stroke="none" 
	d="
M19.468658,251.000000 
	C16.742247,242.271103 19.314142,235.497910 26.135450,229.824265 
	C35.344601,222.164520 46.428940,219.485184 57.655537,216.984924 
	C68.619537,214.543167 79.282578,211.429642 87.449951,203.051941 
	C93.303200,197.047943 94.933807,181.266678 90.499222,174.233505 
	C87.083992,168.817017 87.063644,162.550919 86.032753,156.540329 
	C85.789970,155.124786 86.303917,153.398544 84.246147,152.914368 
	C80.196983,151.961609 79.829865,148.879318 80.012741,145.530075 
	C80.216286,141.802551 80.006516,138.038513 77.886276,134.937302 
	C74.718193,130.303497 74.902512,125.240593 75.033829,120.065819 
	C75.124649,116.486824 76.148933,114.181190 80.358757,115.634254 
	C80.226212,105.934258 77.720360,96.709549 77.957932,87.239838 
	C78.179062,78.425034 79.865387,70.345032 88.109634,65.247406 
	C88.659515,64.907402 89.414383,64.374138 89.480263,63.855366 
	C90.379372,56.775665 95.996834,56.187408 101.250565,55.451595 
	C114.957718,53.531822 128.747208,53.022614 142.489288,54.781086 
	C151.169342,55.891808 157.054291,59.685337 161.989273,68.393448 
	C168.480591,79.847771 168.779526,91.556007 169.888763,103.584099 
	C170.050827,105.341393 169.138763,107.176109 169.137207,108.975349 
	C169.135010,111.504929 167.646057,114.925995 172.266769,115.358116 
	C172.838654,115.411591 173.796402,116.552063 173.755386,117.130722 
	C173.390717,122.274719 176.167892,127.563515 172.773590,132.594955 
	C169.909653,136.840225 168.644272,141.619080 169.044128,146.816971 
	C169.225616,149.176010 169.208191,151.551605 166.040909,152.257263 
	C163.905060,152.733109 164.132996,154.638382 163.982819,156.301910 
	C163.215088,164.806793 161.931061,172.898926 155.373734,179.535980 
	C152.136536,182.812531 155.118179,187.826538 155.409424,191.943039 
	C155.871567,198.474960 159.461487,203.440063 165.182343,207.280960 
	C175.307404,214.078781 186.926590,216.118622 198.324112,219.042404 
	C207.069641,221.285889 215.439346,224.127487 222.299164,230.569565 
	C228.159744,236.073257 230.656906,242.321884 229.014954,250.596329 
	C159.312439,251.000000 89.624878,251.000000 19.468658,251.000000 
z"/>
</svg>